<svg xmlns="http://www.w3.org/2000/svg" viewBox="0 0 1200 760" role="img" aria-label="CoreFleet AI workflow preview">
  <rect width="1200" height="760" fill="#020817"/>
  <rect x="92" y="92" width="1016" height="576" rx="46" fill="#07111f" stroke="#ffffff" stroke-opacity=".08"/>
  <g stroke="#22d3ee" stroke-width="4" stroke-opacity=".55" fill="none">
    <path d="M244 232 C390 140 454 320 596 228 S824 146 964 250"/>
    <path d="M244 512 C378 424 464 604 600 500 S824 432 964 528"/>
    <path d="M350 380 H850"/>
  </g>
  <g>
    <circle cx="244" cy="232" r="52" fill="#0f172a" stroke="#22d3ee" stroke-opacity=".55"/>
    <circle cx="596" cy="228" r="64" fill="#0f172a" stroke="#60a5fa" stroke-opacity=".55"/>
    <circle cx="964" cy="250" r="52" fill="#0f172a" stroke="#22d3ee" stroke-opacity=".55"/>
    <circle cx="244" cy="512" r="52" fill="#0f172a" stroke="#22d3ee" stroke-opacity=".55"/>
    <circle cx="600" cy="500" r="64" fill="#0f172a" stroke="#60a5fa" stroke-opacity=".55"/>
    <circle cx="964" cy="528" r="52" fill="#0f172a" stroke="#22d3ee" stroke-opacity=".55"/>
  </g>
  <g fill="#e2e8f0" font-family="Arial, sans-serif" font-size="24" font-weight="700" text-anchor="middle">
    <text x="244" y="240">Data</text>
    <text x="596" y="236">AI</text>
    <text x="964" y="258">Ops</text>
    <text x="244" y="520">API</text>
    <text x="600" y="508">RAG</text>
    <text x="964" y="536">Plan</text>
  </g>
</svg>
