<svg xmlns="http://www.w3.org/2000/svg" viewBox="0 0 1200 760" role="img" aria-label="FinSage dashboard preview">
  <rect width="1200" height="760" fill="#020817"/>
  <rect x="72" y="64" width="1056" height="632" rx="44" fill="#07111f" stroke="#164e63" stroke-opacity=".45"/>
  <rect x="112" y="112" width="260" height="536" rx="28" fill="#0f172a" stroke="#ffffff" stroke-opacity=".08"/>
  <rect x="414" y="112" width="654" height="250" rx="28" fill="#0b1425" stroke="#ffffff" stroke-opacity=".08"/>
  <rect x="414" y="398" width="304" height="250" rx="28" fill="#0b1425" stroke="#ffffff" stroke-opacity=".08"/>
  <rect x="764" y="398" width="304" height="250" rx="28" fill="#0b1425" stroke="#ffffff" stroke-opacity=".08"/>
  <circle cx="178" cy="178" r="34" fill="#22d3ee"/>
  <rect x="232" y="150" width="92" height="16" rx="8" fill="#e2e8f0"/>
  <rect x="232" y="182" width="58" height="12" rx="6" fill="#64748b"/>
  <path d="M470 304 C540 174 620 316 688 226 C760 130 820 286 1010 166" fill="none" stroke="#22d3ee" stroke-width="10" stroke-linecap="round"/>
  <path d="M470 316 C556 256 604 352 690 288 C790 214 858 328 1010 248" fill="none" stroke="#60a5fa" stroke-width="8" stroke-linecap="round" opacity=".65"/>
  <g fill="#0e7490">
    <rect x="154" y="286" width="160" height="16" rx="8"/>
    <rect x="154" y="340" width="126" height="16" rx="8"/>
    <rect x="154" y="394" width="180" height="16" rx="8"/>
    <rect x="154" y="448" width="110" height="16" rx="8"/>
  </g>
  <g fill="#38bdf8">
    <rect x="462" y="556" width="44" height="54" rx="12"/>
    <rect x="526" y="508" width="44" height="102" rx="12"/>
    <rect x="590" y="462" width="44" height="148" rx="12"/>
    <rect x="654" y="532" width="44" height="78" rx="12"/>
  </g>
  <circle cx="916" cy="524" r="84" fill="none" stroke="#22d3ee" stroke-width="18"/>
  <circle cx="916" cy="524" r="84" fill="none" stroke="#1e293b" stroke-width="18" stroke-dasharray="154 420"/>
</svg>
