<svg xmlns="http://www.w3.org/2000/svg" viewBox="0 0 1200 760" role="img" aria-label="MediNova mobile app preview">
  <rect width="1200" height="760" fill="#020817"/>
  <rect x="146" y="82" width="320" height="596" rx="58" fill="#07111f" stroke="#22d3ee" stroke-opacity=".35" stroke-width="3"/>
  <rect x="186" y="142" width="240" height="476" rx="34" fill="#0f172a"/>
  <rect x="216" y="182" width="180" height="22" rx="11" fill="#e2e8f0"/>
  <rect x="216" y="234" width="128" height="14" rx="7" fill="#64748b"/>
  <rect x="216" y="294" width="180" height="92" rx="24" fill="#0e7490" fill-opacity=".35" stroke="#22d3ee" stroke-opacity=".25"/>
  <rect x="216" y="420" width="180" height="56" rx="20" fill="#172554"/>
  <rect x="216" y="500" width="180" height="56" rx="20" fill="#172554"/>
  <rect x="590" y="138" width="438" height="156" rx="34" fill="#07111f" stroke="#ffffff" stroke-opacity=".08"/>
  <rect x="590" y="334" width="438" height="156" rx="34" fill="#07111f" stroke="#ffffff" stroke-opacity=".08"/>
  <rect x="590" y="530" width="438" height="106" rx="34" fill="#07111f" stroke="#ffffff" stroke-opacity=".08"/>
  <path d="M650 224 C730 164 790 264 868 204 C918 168 964 188 990 214" fill="none" stroke="#22d3ee" stroke-width="9" stroke-linecap="round"/>
  <g fill="#e2e8f0">
    <rect x="650" y="374" width="240" height="20" rx="10"/>
    <rect x="650" y="414" width="310" height="14" rx="7" fill-opacity=".45"/>
    <rect x="650" y="568" width="180" height="18" rx="9"/>
  </g>
  <circle cx="950" cy="412" r="40" fill="#22d3ee"/>
</svg>
