<svg xmlns="http://www.w3.org/2000/svg" viewBox="0 0 1200 675" role="img" aria-label="Abstract delivery system preview">
  <rect width="1200" height="675" fill="#020817"/>
  <path d="M104 456 C268 214 420 552 590 326 S918 134 1090 382" fill="none" stroke="#22d3ee" stroke-width="10" stroke-linecap="round" opacity=".75"/>
  <path d="M126 246 C300 386 436 106 620 270 S894 572 1080 214" fill="none" stroke="#818cf8" stroke-width="8" stroke-linecap="round" opacity=".58"/>
  <g fill="#07111f" stroke="#ffffff" stroke-opacity=".12">
    <rect x="126" y="98" width="248" height="132" rx="28"/>
    <rect x="478" y="92" width="244" height="138" rx="28"/>
    <rect x="826" y="98" width="248" height="132" rx="28"/>
    <rect x="236" y="444" width="248" height="132" rx="28"/>
    <rect x="708" y="444" width="248" height="132" rx="28"/>
  </g>
  <g fill="#22d3ee">
    <circle cx="250" cy="164" r="12"/>
    <circle cx="600" cy="164" r="12"/>
    <circle cx="950" cy="164" r="12"/>
    <circle cx="360" cy="510" r="12"/>
    <circle cx="832" cy="510" r="12"/>
  </g>
</svg>
